<?xml version="1.0"?>
<svg xmlns="http://www.w3.org/2000/svg" xmlns:xlink="http://www.w3.org/1999/xlink" viewBox="0 0 512 512" width="512" height="512"><linearGradient id="a" gradientUnits="userSpaceOnUse" x1="256" x2="256" y1="6.878" y2="496.01"><stop offset="0" stop-color="#00efd1"/><stop offset="1" stop-color="#00acea"/></linearGradient><path d="m398.732 106.414a41.391 41.391 0 0 0 -38.607-26.414h-208.25a41.4 41.4 0 0 0 -38.618 26.441l-64.726 171.159a9.357 9.357 0 0 0 -.531 3.44v110.072a40.8 40.8 0 0 0 41.066 40.888h333.868a40.8 40.8 0 0 0 41.066-40.888v-110.072a9.357 9.357 0 0 0 -.531-3.438zm-266.781 7.095a21.242 21.242 0 0 1 19.924-13.509h208.25a21.234 21.234 0 0 1 19.914 13.482l60.111 158.518h-48.15v-70.775a10.435 10.435 0 0 0 -10.278-10.225h-21.722v-52.375a9.334 9.334 0 0 0 -9.578-9.625h-188.844a9.334 9.334 0 0 0 -9.578 9.625v52.375h-16.5c-5.523 0-10.5 4.7-10.5 10.225v70.775h-53.15zm208.471 97.491h31.578v61h-46.1a10.075 10.075 0 0 0 -9.8 8.064c-.419 2.036-10.817 49.9-60.1 49.9s-59.682-47.878-60.094-49.881a10.028 10.028 0 0 0 -9.806-8.083h-41.1v-61zm-168.422-20v-42h168v42zm272 200.112a20.776 20.776 0 0 1 -21.066 20.888h-333.868a20.776 20.776 0 0 1 -21.066-20.888v-99.112h110.546a103.024 103.024 0 0 0 12.411 24.744c10.643 15.147 30.568 33.224 65.043 33.224s54.4-18.087 65.043-33.235a102.967 102.967 0 0 0 12.411-24.733h110.546z" fill="url(#a)"/></svg>
